<svg baseProfile="basic" id="Ebene_1" xmlns="http://www.w3.org/2000/svg" viewBox="256 365.3 100 61.4"><style>.st0{fill:#C5C6C6;} .st1{fill:#020204;}</style><g id="Coldpress_Silver_Foil"><path id="Fahne_1_" class="st0" d="M297.5 373.9c-17.2.8-21.5-2-31.6-5 8.1.9 17 1.6 29.4-.8 32.2-6.1 50.5-2 54.6 9.3-.9-1.4-2.7-5.3-12.9-7.7-12.2-3-21.8 3.4-39.5 4.2z"/></g><g id="Silkscreen_Colors"><path id="Guhl_Logo_1_" class="st1" d="M267.6 399.8h10.6v24.6l-.1.1c-1.8 1.3-5.4 2.2-8.7 2.2-9.7 0-13.4-6.5-13.4-23.2s3.9-23.5 13.7-23.5c2.7 0 5.6.8 7.5 1.8l.1.1-.7 4.8-.3-.1c-2.1-1.2-4.2-1.7-6.4-1.7-6 0-8.2 5.2-8.2 18.8 0 13 2.2 18.3 7.7 18.3 1.5 0 2.5-.1 3.5-.7V405h-5.2l-.1-5.2zm32.3 13.9c0 5.4-1.7 7.9-5.5 7.9-3.9 0-5.6-2.4-5.6-7.9v-33.2h-5.4v33.2c0 8.2 4 12.9 11.1 12.9s11.2-4.7 11.2-12.9v-33.2H300v33.2h-.1zm50.2 7.2c-4.2 0-6-2-6-6.9v-33.5h-5.5v34.9c0 6.9 3.7 10.5 10.8 10.5h6.5v-5h-5.8zm-22.6-21.1h-10.6v-19.3h-5.5v45.3h5.5v-21.3h10.7v21.3h5.4v-45.3h-5.4v19.3h-.1z"/></g></svg>