<svg width="120" height="388" viewBox="0 0 120 388" xmlns="http://www.w3.org/2000/svg" xmlns:xlink="http://www.w3.org/1999/xlink"><svg baseProfile="basic" viewBox="-301 392 8 10" width="8" height="10" id="arrow-down"><path d="M-299.7 396.5l4 4.1-1.3 1.4-4-4.1 1.3-1.4z"/><path d="M-294.3 396.5l1.3 1.4-4 4.1-1.3-1.4 4-4.1z"/><path d="M-297.9 392h1.9v9.8h-1.9z"/></svg><svg baseProfile="basic" viewBox="-298 390 15 14" width="15" height="14" id="arrow-left" y="10"><path d="M-289.5 402.7l-7.1-7-1.4 1.3 7.1 7 1.4-1.3z"/><path d="M-289.5 391.3l-1.4-1.3-7.1 7 1.4 1.3 7.1-7z"/><path d="M-298 396h15v1.9h-15z"/></svg><svg baseProfile="basic" viewBox="-298 390 15 14" width="15" height="14" id="arrow-right" y="24"><path d="M-291.5 391.3l7.1 7 1.4-1.3-7.1-7-1.4 1.3z"/><path d="M-291.5 402.7l1.4 1.3 7.1-7-1.4-1.3-7.1 7z"/><path d="M-298 396.1h15v1.9h-15z"/></svg><svg baseProfile="basic" viewBox="-301 392 8 10" width="8" height="10" id="arrow-up" y="38"><path d="M-299.7 397.5l4-4.1-1.3-1.4-4 4.1 1.3 1.4z"/><path d="M-294.3 397.5l1.3-1.4-4-4.1-1.3 1.4 4 4.1z"/><path d="M-297.9 392.2h1.9v9.8h-1.9z"/></svg><svg baseProfile="basic" id="badge-article" viewBox="-285 377 40 40" width="40" height="40" y="48"><style>.est0{fill:#fff}</style><circle class="est0" cx="-265" cy="397" r="20"/><path d="M-273 389h16v1.5h-16V389zm0 3.9h16v1.5h-16v-1.5zm0 3.8h16v1.5h-16v-1.5zm0 3.9h16v1.5h-16v-1.5zm0 3.9h9.6v1.5h-9.6v-1.5z"/></svg><svg id="badge-facebook" viewBox="-285 377 40 40" width="40" height="40" y="88"><style>.fst0{fill:#fff}</style><circle class="fst0" cx="-265" cy="397" r="20"/><path d="M-260.2 387v3.2s-2.4-.2-3 .7c-.3.5-.1 2-.2 3h3.2c-.3 1.2-.5 2.1-.7 3.1h-2.5v10h-4.4v-10h-1.9v-3.1h1.9c.1-2.3.1-4.6 1.3-5.7 1.3-1.4 2.4-1.2 6.3-1.2z"/></svg><svg baseProfile="basic" id="badge-guhl" viewBox="-285 377 40 40" width="40" height="40" y="128"><style>.gst0{fill:#fff}.gst1{fill:#c5c6c6}.gst2{fill:#020204}</style><circle class="gst0" cx="-265" cy="397" r="20"/><g id="gColdpress_Silver_Foil"><path id="gFahne_1_" class="gst1" d="M-267.2 391.3c-4.5.2-5.6-.5-8.2-1.3 2.1.2 4.4.4 7.7-.2 8.4-1.6 13.1-.5 14.2 2.4-.2-.4-.7-1.4-3.4-2-3.2-.8-5.7.8-10.3 1.1z"/></g><g id="gSilkscreen_Colors"><path id="gGuhl_Logo_1_" class="gst2" d="M-275 398h2.8v6.4c-.5.3-1.4.6-2.3.6-2.5 0-3.5-1.7-3.5-6s1-6.1 3.6-6.1c.7 0 1.5.2 2 .5l-.2 1.2h-.1c-.5-.3-1.1-.4-1.7-.4-1.6 0-2.1 1.4-2.1 4.9 0 3.4.6 4.8 2 4.8.4 0 .7 0 .9-.2v-4.2h-1.4V398zm8.4 3.6c0 1.4-.4 2.1-1.4 2.1-1 0-1.5-.6-1.5-2.1V393h-1.4v8.6c0 2.1 1 3.4 2.9 3.4s2.9-1.2 2.9-3.4V393h-1.5v8.6zm13.1 1.9c-1.1 0-1.6-.5-1.6-1.8V393h-1.4v9.1c0 1.8 1 2.7 2.8 2.7h1.7v-1.3h-1.5zm-5.9-5.5h-2.8v-5h-1.4v11.8h1.4v-5.5h2.8v5.5h1.4V393h-1.4v5z"/></g></svg><svg id="badge-instagram" viewBox="-285 377 40 40" width="40" height="40" y="168"><style>.hst0{fill:#fff}.st1{fill:none;enable-background:new}</style><circle class="hst0" cx="-265" cy="397" r="20"/><path d="M-258.2 406h-13.6c-1.3 0-2.3-1-2.3-2.2v-13.5c0-1.2 1-2.2 2.3-2.2h13.6c1.3 0 2.3 1 2.3 2.2v13.5c0 1.2-1 2.2-2.3 2.2zm-6.8-12.5c-1.4 0-2.6.8-3.2 2 0 .1-.1.1-.1.2v.1c0 .1 0 .2-.1.2v.9c0 1.9 1.6 3.5 3.5 3.5s3.5-1.6 3.5-3.5v-.9c0-.1 0-.2-.1-.2v-.1c0-.1-.1-.2-.1-.2-.8-1.2-2-2-3.4-2zm7-2.6c0-.5-.4-.9-.9-.9h-1.8c-.5 0-.9.4-.9.9v1.8c0 .5.4.9.9.9h1.8c.5 0 .9-.4.9-.9v-1.8zm0 4.6h-1.7c.1.5.2 1 .2 1.5 0 3-2.5 5.5-5.6 5.5-3.1 0-5.6-2.5-5.6-5.5 0-.5.1-1 .2-1.5h-1.7v7.5c0 .5.4.9.9.9h12.2c.5 0 .9-.4.9-.9v-7.5z"/></svg><svg viewBox="-299 390 13 13" width="13" height="13" id="ico-close" y="208"><path d="M-296.3 391.5l8.8 8.8-1.1 1.1-8.8-8.8 1.1-1.1z"/><path d="M-297.5 400.4l8.9-8.9 1.1 1.1-8.9 8.9-1.1-1.1z"/></svg><svg baseProfile="basic" viewBox="-300 387 9.5 20" width="9.5" height="20" id="ico-facebook" y="221"><path d="M-290.6 387v3.2s-2.4-.2-3 .7c-.3.5-.1 2-.2 3h3.2c-.3 1.2-.5 2.1-.7 3.1h-2.5v10h-4.4v-10h-1.9v-3.1h1.9c.1-2.3.1-4.6 1.3-5.7 1.3-1.4 2.6-1.2 6.3-1.2z"/></svg><svg baseProfile="basic" viewBox="-295 387 20.2 20" width="20.2" height="20" id="ico-instagram" y="241"><path d="M-277.4 407h-15.1c-1.4 0-2.5-1.1-2.5-2.5v-15c0-1.4 1.1-2.5 2.5-2.5h15.1c1.4 0 2.5 1.1 2.5 2.5v15c0 1.4-1.1 2.5-2.5 2.5zm-7.5-13.9c-1.6 0-2.9.9-3.5 2.2 0 .1-.1.2-.1.3v.1c0 .1-.1.2-.1.3v.9c0 2.1 1.7 3.9 3.9 3.9s3.9-1.7 3.9-3.9v-.9c0-.1 0-.2-.1-.3v-.1c0-.1-.1-.2-.1-.3-1-1.3-2.4-2.2-3.9-2.2zm7.8-2.9c0-.6-.5-1-1-1h-2c-.6 0-1 .4-1 1v2c0 .6.5 1 1 1h2c.6 0 1-.4 1-1v-2zm0 5.2h-1.9c.1.5.2 1.1.2 1.6 0 3.4-2.8 6.1-6.2 6.1s-6.2-2.7-6.2-6.1c0-.6.1-1.1.2-1.6h-1.9v8.4c0 .6.5 1 1 1h13.6c.6 0 1-.4 1-1v-8.4z"/></svg><svg baseProfile="basic" viewBox="-292 387 27 19" width="27" height="19" id="ico-mail" y="261"><path d="M-273.6 395.5l8.2-8.2c.2.2.4.6.4.9v16.4c0 .3-.1.6-.3.9l-8.3-10zm-18-8.2c.2-.2.5-.3.8-.3h24.5c.3 0 .6.1.8.3l-13.1 10.5-13-10.5zm-.1 18.3c-.2-.2-.3-.5-.3-.9v-16.4c0-.4.1-.7.4-.9l8.2 8.2-8.3 10zm13.2-5.2l3.4-3.4 9.7 8.7c-.2.2-.5.4-.9.4h-24.5c-.3 0-.6-.1-.9-.4l9.7-8.7 3.5 3.4z"/></svg><svg baseProfile="basic" viewBox="-300 392 10 10" width="10" height="10" id="ico-menu" y="280"><path d="M-300 400h10v2h-10zm0-4h10v2h-10zm0-4h10v2h-10z"/></svg><svg baseProfile="basic" viewBox="-295 387 20.2 20" width="20.2" height="20" id="ico-pinterest" y="290"><path d="M-284.9 387c-5.6 0-10.1 4.5-10.1 10 0 4.1 2.5 7.7 6.1 9.2 0-.7 0-1.5.2-2.3.2-.8 1.3-5.5 1.3-5.5s-.3-.6-.3-1.6c0-1.5.9-2.6 2-2.6.9 0 1.4.7 1.4 1.5 0 .9-.6 2.3-.9 3.6-.3 1.1.5 1.9 1.6 1.9 1.9 0 3.2-2.4 3.2-5.3 0-2.2-1.5-3.8-4.2-3.8-3.1 0-5 2.3-5 4.8 0 .9.3 1.5.7 2 .2.2.2.3.1.6 0 .2-.2.6-.2.8-.1.3-.3.3-.5.2-1.4-.6-2.1-2.1-2.1-3.8 0-2.9 2.4-6.3 7.2-6.3 3.9 0 6.4 2.8 6.4 5.7 0 3.9-2.2 6.9-5.5 6.9-1.1 0-2.1-.6-2.5-1.2 0 0-.6 2.3-.7 2.8-.2.8-.6 1.5-1 2.1.9.2 1.8.4 2.8.4 5.6 0 10.1-4.5 10.1-10-.1-5.6-4.6-10.1-10.1-10.1z"/></svg><svg baseProfile="basic" viewBox="-293 384 25 25" width="25" height="25" id="ico-search" y="310"><path d="M-276 397.8l8 8-3.2 3.2-8-8 3.2-3.2z"/><path d="M-284 402.2c-5.1 0-9.1-4.1-9.1-9.1 0-5.1 4.1-9.1 9.1-9.1s9.1 4.1 9.1 9.1c.1 5.1-3.9 9.1-9.1 9.1zm0-16c-3.8 0-6.9 3.1-6.9 6.9s3.1 6.9 6.9 6.9 6.9-3.1 6.9-6.9c.1-3.9-3.1-6.9-6.9-6.9z"/></svg><svg id="ico-twitter" viewBox="-295 389 20 16" width="20" height="16" y="335"><style>.st0{fill:none;enable-background:new}</style><path d="M-277.2 393v.5c0 5.3-4.1 11.5-11.5 11.5-2.3 0-4.4-.7-6.2-1.8.3 0 .6.1 1 .1 1.9 0 3.6-.6 5-1.7-1.8 0-3.3-1.2-3.8-2.8.2 0 .5.1.8.1.4 0 .7 0 1.1-.1-1.8-.4-3.2-2-3.2-4v-.1c.5.3 1.2.5 1.8.5-1.1-.7-1.8-2-1.8-3.4 0-.7.2-1.4.5-2 2 2.4 5 4.1 8.3 4.2-.1-.3-.1-.6-.1-.9 0-2.2 1.8-4 4-4 1.2 0 2.2.5 2.9 1.3.9-.2 1.8-.5 2.6-1-.3.9-.9 1.7-1.8 2.2.8-.1 1.6-.3 2.3-.6-.4.7-1.1 1.4-1.9 2z"/></svg><svg baseProfile="basic" viewBox="-291 387 28 20" width="28" height="20" id="ico-youtube" y="351"><path d="M-267.3 387h-18.6c-2.4 0-5 1.6-5 4.1v12c0 2.4 2.7 3.9 5 3.9h18.7c2.4 0 4.3-1.5 4.3-3.9v-12c-.1-2.4-2-4.1-4.4-4.1zm-11.5 14.6l-.1-9.2 6.1 4.6-6 4.6z"/></svg><svg baseProfile="basic" id="wave" viewBox="-245 388 120 17" width="120" height="17" y="371"><style>.rst0{fill:#c5c6c6}</style><path class="rst0" d="M-199.8 400c-24.7 1-30.8-2.7-45.2-7.1 11.6 1.2 24.3 2.2 42-1 46-8.5 72.2-2.8 78 13.1-1.2-2-3.9-7.4-18.5-10.9-17.4-4.1-31 4.9-56.3 5.9z"/></svg></svg>